<svg 
 xmlns="http://www.w3.org/2000/svg"
 xmlns:xlink="http://www.w3.org/1999/xlink"
 width="60px" height="60px">
<path fill-rule="evenodd"  fill="rgb(196, 221, 252)"
 d="M30.000,-0.000 C46.568,-0.000 60.000,13.431 60.000,30.000 C60.000,46.568 46.568,60.000 30.000,60.000 C13.431,60.000 -0.000,46.568 -0.000,30.000 C-0.000,13.431 13.431,-0.000 30.000,-0.000 Z"/>
<path fill-rule="evenodd"  fill="rgb(120, 181, 255)"
 d="M40.000,32.000 L32.000,32.000 L32.000,40.000 C32.000,41.104 31.104,42.000 30.000,42.000 C28.895,42.000 28.000,41.104 28.000,40.000 L28.000,32.000 L20.000,32.000 C18.895,32.000 18.000,31.104 18.000,30.000 C18.000,28.895 18.895,28.000 20.000,28.000 L28.000,28.000 L28.000,20.000 C28.000,18.895 28.895,18.000 30.000,18.000 C31.104,18.000 32.000,18.895 32.000,20.000 L32.000,28.000 L40.000,28.000 C41.104,28.000 42.000,28.895 42.000,30.000 C42.000,31.104 41.104,32.000 40.000,32.000 Z"/>
</svg>