<svg 
 xmlns="http://www.w3.org/2000/svg"
 xmlns:xlink="http://www.w3.org/1999/xlink"
 width="48px" height="48px">
<path fill-rule="evenodd"  fill="rgb(25, 204, 174)"
 d="M45.000,27.000 L27.000,27.000 L27.000,45.000 C27.000,46.657 25.656,48.000 24.000,48.000 C22.343,48.000 21.000,46.657 21.000,45.000 L21.000,27.000 L3.000,27.000 C1.343,27.000 -0.000,25.657 -0.000,24.000 C-0.000,22.343 1.343,21.000 3.000,21.000 L21.000,21.000 L21.000,3.000 C21.000,1.343 22.343,-0.000 24.000,-0.000 C25.656,-0.000 27.000,1.343 27.000,3.000 L27.000,21.000 L45.000,21.000 C46.657,21.000 48.000,22.343 48.000,24.000 C48.000,25.657 46.657,27.000 45.000,27.000 Z"/>
</svg>