<svg 
 xmlns="http://www.w3.org/2000/svg"
 xmlns:xlink="http://www.w3.org/1999/xlink"
 width="18px" height="18px">
<path fill-rule="evenodd" 
 d="M17.204,18.000 L0.795,18.000 C0.298,17.900 -0.001,17.602 -0.001,17.105 C-0.001,16.707 0.298,16.409 0.795,16.409 L1.989,16.409 L1.989,6.961 C1.989,3.083 5.071,-0.000 8.950,-0.000 C12.828,-0.000 15.911,3.083 15.911,6.961 L15.911,16.409 L17.204,16.409 C17.602,16.409 17.999,16.707 17.999,17.204 C17.999,17.602 17.701,18.000 17.204,18.000 ZM14.419,6.961 C14.419,3.978 11.933,1.492 8.950,1.492 C5.966,1.492 3.480,3.978 3.480,6.961 L3.480,16.409 L14.419,16.409 L14.419,6.961 ZM8.950,4.972 C9.248,4.972 9.447,5.072 9.646,5.271 C9.845,5.469 9.944,5.668 9.944,5.867 L9.745,10.243 C9.745,10.442 9.646,10.641 9.546,10.740 C9.347,10.840 9.149,10.939 8.950,10.939 C8.751,10.939 8.552,10.840 8.452,10.740 C8.353,10.641 8.253,10.442 8.253,10.243 L7.955,5.867 C7.955,5.668 8.054,5.469 8.253,5.271 C8.452,5.072 8.651,4.972 8.950,4.972 ZM8.950,11.934 C9.248,11.934 9.447,12.033 9.646,12.232 C9.845,12.431 9.944,12.630 9.944,12.928 C9.944,13.226 9.845,13.425 9.646,13.624 C9.447,13.823 9.248,13.922 8.950,13.922 C8.651,13.922 8.452,13.823 8.253,13.624 C8.054,13.425 7.955,13.226 7.955,12.928 C7.955,12.630 8.054,12.431 8.253,12.232 C8.452,12.033 8.651,11.934 8.950,11.934 Z"/>
</svg>