<svg 
 xmlns="http://www.w3.org/2000/svg"
 xmlns:xlink="http://www.w3.org/1999/xlink"
 width="18px" height="18px">
<path fill-rule="evenodd" 
 d="M15.199,18.000 L4.799,18.000 C3.200,18.000 1.999,16.800 1.999,15.200 L1.999,13.600 L0.800,13.600 C0.399,13.600 -0.001,13.300 -0.001,12.800 C-0.001,12.300 0.300,12.000 0.800,12.000 L1.999,12.000 L1.999,5.600 L0.800,5.600 C0.300,5.500 -0.001,5.200 -0.001,4.800 C-0.001,4.300 0.300,4.000 0.800,4.000 L1.999,4.000 L1.999,2.800 C1.999,1.200 3.200,-0.000 4.799,-0.000 L15.299,-0.000 C16.799,-0.000 17.999,1.200 17.999,2.800 L17.999,15.300 C17.999,16.800 16.799,18.000 15.199,18.000 ZM16.499,2.800 C16.499,2.100 15.899,1.600 15.299,1.600 L4.799,1.600 C4.099,1.600 3.599,2.100 3.599,2.700 L3.599,4.000 L4.299,4.000 C4.700,4.000 4.999,4.300 4.999,4.800 C4.999,5.200 4.700,5.600 4.200,5.600 L3.599,5.600 L3.599,12.000 L4.299,12.000 C4.700,12.000 4.999,12.300 4.999,12.800 C4.999,13.200 4.700,13.600 4.200,13.600 L3.599,13.600 L3.599,15.200 C3.599,15.900 4.200,16.400 4.799,16.400 L15.299,16.400 C15.999,16.400 16.499,15.800 16.499,15.200 L16.499,2.800 ZM13.299,13.600 L6.799,13.600 C6.399,13.600 5.999,13.300 5.999,12.800 C5.999,12.300 6.300,12.000 6.799,12.000 L13.299,12.000 C13.700,12.000 14.100,12.300 14.100,12.800 C14.100,13.200 13.799,13.600 13.299,13.600 ZM13.199,9.600 L6.799,9.600 C6.300,9.500 5.999,9.200 5.999,8.800 C5.999,8.300 6.300,8.000 6.799,8.000 L13.299,8.000 C13.700,8.000 13.999,8.300 13.999,8.800 C13.999,9.200 13.700,9.600 13.199,9.600 ZM13.199,5.600 L6.799,5.600 C6.300,5.500 5.999,5.200 5.999,4.800 C5.999,4.300 6.300,4.000 6.799,4.000 L13.299,4.000 C13.700,4.000 13.999,4.300 13.999,4.800 C13.999,5.200 13.700,5.600 13.199,5.600 Z"/>
</svg>