<svg 
 xmlns="http://www.w3.org/2000/svg"
 xmlns:xlink="http://www.w3.org/1999/xlink"
 width="42px" height="34px">
<path fill-rule="evenodd"  fill="rgb(111, 117, 145)"
 d="M39.201,31.156 L35.004,31.156 L34.696,32.199 C34.696,33.183 33.874,33.987 32.870,33.987 L28.306,33.987 C27.302,33.987 26.481,33.183 26.481,32.199 L26.481,31.305 L15.527,31.305 L15.527,32.199 C15.527,33.183 14.706,33.987 13.702,33.987 L9.138,33.987 C8.134,33.987 7.312,33.183 7.312,32.199 L7.025,31.156 L2.829,31.156 C1.277,31.156 0.010,30.143 0.010,28.623 L0.010,2.695 C0.010,1.175 1.197,0.013 2.749,0.013 L39.260,0.013 C40.811,0.013 41.998,1.175 41.998,2.695 L41.998,28.623 C41.998,30.143 40.753,31.156 39.201,31.156 ZM5.094,26.888 L36.915,26.888 C37.445,26.888 37.799,26.532 37.799,25.998 L37.799,13.749 C37.759,13.998 37.603,14.163 37.373,14.163 L4.210,14.163 L4.210,25.998 C4.210,26.532 4.563,26.888 5.094,26.888 ZM36.915,4.252 L5.094,4.252 C4.563,4.252 4.210,4.609 4.210,5.143 L4.210,9.897 L37.373,9.897 C37.603,9.897 37.759,10.062 37.799,10.312 L37.799,5.143 C37.799,4.609 37.445,4.252 36.915,4.252 ZM7.545,18.430 L10.699,18.430 C11.014,18.430 11.224,18.641 11.224,18.957 L11.224,22.119 C11.224,22.435 11.014,22.646 10.699,22.646 L7.545,22.646 C7.229,22.646 7.019,22.435 7.019,22.119 L7.019,18.957 C7.019,18.641 7.229,18.430 7.545,18.430 ZM15.874,18.414 L20.527,18.414 C20.807,18.414 20.993,18.583 20.993,18.837 L20.993,22.226 C20.993,22.480 20.807,22.649 20.527,22.649 L15.874,22.649 C15.595,22.649 15.409,22.480 15.409,22.226 L15.409,18.837 C15.409,18.583 15.595,18.414 15.874,18.414 ZM22.884,18.414 L27.537,18.414 C27.816,18.414 28.003,18.583 28.003,18.837 L28.003,22.226 C28.003,22.480 27.816,22.649 27.537,22.649 L22.884,22.649 C22.605,22.649 22.419,22.480 22.419,22.226 L22.419,18.837 C22.419,18.583 22.605,18.414 22.884,18.414 ZM29.893,18.414 L34.547,18.414 C34.826,18.414 35.011,18.583 35.011,18.837 L35.011,22.226 C35.011,22.480 34.826,22.649 34.547,22.649 L29.893,22.649 C29.614,22.649 29.428,22.480 29.428,22.226 L29.428,18.837 C29.428,18.583 29.614,18.414 29.893,18.414 Z"/>
</svg>