<svg 
 xmlns="http://www.w3.org/2000/svg"
 xmlns:xlink="http://www.w3.org/1999/xlink"
 width="58px" height="46px">
<path fill-rule="evenodd"  fill="rgb(25, 204, 174)"
 d="M54.122,42.164 L48.326,42.164 L47.897,43.576 C47.897,44.907 46.764,45.996 45.377,45.996 L39.073,45.996 C37.686,45.996 36.551,44.907 36.551,43.576 L36.551,42.366 L21.422,42.366 L21.422,43.576 C21.422,44.907 20.288,45.996 18.901,45.996 L12.597,45.996 C11.210,45.996 10.075,44.907 10.075,43.576 L9.680,42.164 L3.882,42.164 C1.739,42.164 -0.010,40.792 -0.010,38.735 L-0.010,3.640 C-0.010,1.583 1.628,0.010 3.772,0.010 L54.202,0.010 C56.345,0.010 57.984,1.583 57.984,3.640 L57.984,38.735 C57.984,40.792 56.265,42.164 54.122,42.164 ZM7.010,36.387 L50.963,36.387 C51.697,36.387 52.185,35.905 52.185,35.182 L52.185,18.527 L5.790,18.527 L5.790,35.182 C5.790,35.905 6.278,36.387 7.010,36.387 ZM50.963,5.749 L7.010,5.749 C6.278,5.749 5.790,6.231 5.790,6.954 L5.790,12.687 L52.185,12.687 L52.185,6.954 C52.185,6.231 51.697,5.749 50.963,5.749 ZM11.584,24.369 L15.915,24.369 C16.349,24.369 16.638,24.658 16.638,25.091 L16.638,29.420 C16.638,29.853 16.349,30.142 15.915,30.142 L11.584,30.142 C11.151,30.142 10.861,29.853 10.861,29.420 L10.861,25.091 C10.861,24.658 11.151,24.369 11.584,24.369 ZM23.026,24.347 L29.417,24.347 C29.801,24.347 30.056,24.579 30.056,24.927 L30.056,29.566 C30.056,29.914 29.801,30.146 29.417,30.146 L23.026,30.146 C22.642,30.146 22.385,29.914 22.385,29.566 L22.385,24.927 C22.385,24.579 22.642,24.347 23.026,24.347 ZM32.654,24.347 L39.044,24.347 C39.428,24.347 39.684,24.579 39.684,24.927 L39.684,29.566 C39.684,29.914 39.428,30.146 39.044,30.146 L32.654,30.146 C32.270,30.146 32.015,29.914 32.015,29.566 L32.015,24.927 C32.015,24.579 32.270,24.347 32.654,24.347 ZM42.282,24.347 L48.674,24.347 C49.057,24.347 49.313,24.579 49.313,24.927 L49.313,29.566 C49.313,29.914 49.057,30.146 48.674,30.146 L42.282,30.146 C41.898,30.146 41.642,29.914 41.642,29.566 L41.642,24.927 C41.642,24.579 41.898,24.347 42.282,24.347 Z"/>
</svg>