<svg 
 xmlns="http://www.w3.org/2000/svg"
 xmlns:xlink="http://www.w3.org/1999/xlink"
 width="100px" height="100px">
<path fill-rule="evenodd"  fill="rgb(241, 241, 241)"
 d="M50.000,-0.000 C77.614,-0.000 100.000,22.386 100.000,50.000 C100.000,77.614 77.614,100.000 50.000,100.000 C22.385,100.000 -0.000,77.614 -0.000,50.000 C-0.000,22.386 22.385,-0.000 50.000,-0.000 Z"/>
<path fill-rule="evenodd"  fill="rgb(25, 204, 174)"
 d="M71.679,66.719 L66.679,66.719 L66.310,67.928 C66.310,69.067 65.332,69.999 64.135,69.999 L58.697,69.999 C57.501,69.999 56.523,69.067 56.523,67.928 L56.523,66.892 L43.472,66.892 L43.472,67.928 C43.472,69.067 42.493,69.999 41.297,69.999 L35.859,69.999 C34.663,69.999 33.684,69.067 33.684,67.928 L33.343,66.719 L28.342,66.719 C26.494,66.719 24.984,65.545 24.984,63.784 L24.984,34.085 C24.984,32.341 26.398,31.007 28.247,31.007 L71.748,31.007 C73.597,31.007 75.011,32.341 75.011,34.085 L75.011,63.784 C75.011,65.545 73.527,66.719 71.679,66.719 ZM31.137,62.011 L68.857,62.011 C69.487,62.011 69.905,61.601 69.905,60.987 L69.905,47.012 L30.090,47.012 L30.090,60.987 C30.090,61.601 30.508,62.011 31.137,62.011 ZM68.857,36.001 L31.137,36.001 C30.508,36.001 30.090,36.411 30.090,37.025 L30.090,42.994 L69.905,42.994 L69.905,37.025 C69.905,36.411 69.487,36.001 68.857,36.001 ZM35.631,52.993 L39.383,52.993 C39.759,52.993 40.010,53.194 40.010,53.495 L40.010,56.508 C40.010,56.810 39.759,57.011 39.383,57.011 L35.631,57.011 C35.255,57.011 35.005,56.810 35.005,56.508 L35.005,53.495 C35.005,53.194 35.255,52.993 35.631,52.993 ZM45.508,53.007 L50.496,53.007 C50.796,53.007 50.995,53.207 50.995,53.508 L50.995,57.516 C50.995,57.816 50.796,58.017 50.496,58.017 L45.508,58.017 C45.209,58.017 45.009,57.816 45.009,57.516 L45.009,53.508 C45.009,53.207 45.209,53.007 45.508,53.007 ZM53.504,53.007 L58.491,53.007 C58.791,53.007 58.991,53.207 58.991,53.508 L58.991,57.516 C58.991,57.816 58.791,58.017 58.491,58.017 L53.504,58.017 C53.205,58.017 53.005,57.816 53.005,57.516 L53.005,53.508 C53.005,53.207 53.205,53.007 53.504,53.007 ZM61.498,53.007 L66.511,53.007 C66.812,53.007 67.013,53.207 67.013,53.508 L67.013,57.516 C67.013,57.816 66.812,58.017 66.511,58.017 L61.498,58.017 C61.198,58.017 60.997,57.816 60.997,57.516 L60.997,53.508 C60.997,53.207 61.198,53.007 61.498,53.007 Z"/>
</svg>