<svg 
 xmlns="http://www.w3.org/2000/svg"
 xmlns:xlink="http://www.w3.org/1999/xlink"
 width="30px" height="24px">
<path fill-rule="evenodd"  fill="rgb(51, 51, 51)"
 d="M27.999,22.000 L24.999,22.000 L24.779,22.737 C24.779,23.432 24.191,24.000 23.474,24.000 L20.211,24.000 C19.494,24.000 18.907,23.432 18.907,22.737 L18.907,22.105 L11.077,22.105 L11.077,22.737 C11.077,23.432 10.490,24.000 9.771,24.000 L6.509,24.000 C5.792,24.000 5.205,23.432 5.205,22.737 L4.999,22.000 L1.999,22.000 C0.890,22.000 -0.015,21.284 -0.015,20.210 L-0.015,1.895 C-0.015,0.821 0.833,-0.000 1.942,-0.000 L28.041,-0.000 C29.150,-0.000 29.999,0.821 29.999,1.895 L29.999,20.210 C29.999,21.284 29.109,22.000 27.999,22.000 ZM3.618,18.985 L26.365,18.985 C26.744,18.985 26.997,18.733 26.997,18.356 L26.997,9.658 C26.981,9.858 26.869,9.996 26.692,9.996 L2.986,9.996 L2.986,18.356 C2.986,18.733 3.239,18.985 3.618,18.985 ZM26.365,2.995 L3.618,2.995 C3.239,2.995 2.986,3.247 2.986,3.624 L2.986,6.983 L26.692,6.983 C26.869,6.983 26.981,7.121 26.997,7.320 L26.997,3.624 C26.997,3.247 26.744,2.995 26.365,2.995 ZM5.371,13.010 L7.625,13.010 C7.851,13.010 8.001,13.159 8.001,13.383 L8.001,15.616 C8.001,15.840 7.851,15.989 7.625,15.989 L5.371,15.989 C5.145,15.989 4.995,15.840 4.995,15.616 L4.995,13.383 C4.995,13.159 5.145,13.010 5.371,13.010 ZM11.325,12.999 L14.651,12.999 C14.851,12.999 14.984,13.118 14.984,13.298 L14.984,15.692 C14.984,15.871 14.851,15.991 14.651,15.991 L11.325,15.991 C11.125,15.991 10.992,15.871 10.992,15.692 L10.992,13.298 C10.992,13.118 11.125,12.999 11.325,12.999 ZM16.335,12.999 L19.662,12.999 C19.861,12.999 19.994,13.118 19.994,13.298 L19.994,15.692 C19.994,15.871 19.861,15.991 19.662,15.991 L16.335,15.991 C16.136,15.991 16.003,15.871 16.003,15.692 L16.003,13.298 C16.003,13.118 16.136,12.999 16.335,12.999 ZM21.346,12.999 L24.672,12.999 C24.872,12.999 25.005,13.118 25.005,13.298 L25.005,15.692 C25.005,15.871 24.872,15.991 24.672,15.991 L21.346,15.991 C21.146,15.991 21.013,15.871 21.013,15.692 L21.013,13.298 C21.013,13.118 21.146,12.999 21.346,12.999 Z"/>
</svg>