<svg 
 xmlns="http://www.w3.org/2000/svg"
 xmlns:xlink="http://www.w3.org/1999/xlink"
 width="21px" height="26px">
<path fill-rule="evenodd"  fill="rgb(255, 255, 255)"
 d="M1.400,4.000 L19.600,4.000 C20.373,4.000 21.000,4.627 21.000,5.400 L21.000,5.600 C21.000,6.373 20.373,7.000 19.600,7.000 L1.400,7.000 C0.627,7.000 0.000,6.373 0.000,5.600 L0.000,5.400 C0.000,4.627 0.627,4.000 1.400,4.000 Z"/>
<path fill-rule="evenodd"  fill="rgb(255, 255, 255)"
 d="M17.000,26.000 L4.000,26.000 C2.895,26.000 2.000,25.105 2.000,24.000 L2.000,11.000 C2.000,9.895 2.895,9.000 4.000,9.000 L17.000,9.000 C18.105,9.000 19.000,9.895 19.000,11.000 L19.000,24.000 C19.000,25.105 18.105,26.000 17.000,26.000 ZM7.000,13.400 C7.000,12.627 6.373,12.000 5.600,12.000 L5.400,12.000 C4.627,12.000 4.000,12.627 4.000,13.400 L4.000,21.600 C4.000,22.373 4.627,23.000 5.400,23.000 L5.600,23.000 C6.373,23.000 7.000,22.373 7.000,21.600 L7.000,13.400 ZM11.948,13.400 C11.948,12.627 11.321,12.000 10.548,12.000 L10.452,12.000 C9.679,12.000 9.052,12.627 9.052,13.400 L9.052,21.600 C9.052,22.373 9.679,23.000 10.452,23.000 L10.548,23.000 C11.321,23.000 11.948,22.373 11.948,21.600 L11.948,13.400 ZM17.000,13.400 C17.000,12.627 16.373,12.000 15.600,12.000 L15.504,12.000 C14.731,12.000 14.104,12.627 14.104,13.400 L14.104,21.600 C14.104,22.373 14.731,23.000 15.504,23.000 L15.600,23.000 C16.373,23.000 17.000,22.373 17.000,21.600 L17.000,13.400 Z"/>
<path fill-rule="evenodd"  fill="rgb(255, 255, 255)"
 d="M9.800,-0.000 L11.200,-0.000 C12.746,-0.000 14.000,1.254 14.000,2.800 L14.000,3.200 C14.000,4.746 12.746,6.000 11.200,6.000 L9.800,6.000 C8.254,6.000 7.000,4.746 7.000,3.200 L7.000,2.800 C7.000,1.254 8.254,-0.000 9.800,-0.000 Z"/>
</svg>