<?xml version="1.0" encoding="utf-8"?>
<!-- Generator: Adobe Illustrator 22.0.0, SVG Export Plug-In . SVG Version: 6.00 Build 0)  -->
<svg version="1.1" id="图层_1" xmlns="http://www.w3.org/2000/svg" xmlns:xlink="http://www.w3.org/1999/xlink" x="0px" y="0px"
	 viewBox="0 0 61 60" style="enable-background:new 0 0 61 60;" xml:space="preserve">
<style type="text/css">
	.st0{fill:#C4DDFC;}
	.st1{fill:#78B5FF;}
	.st2{fill:#356AFF;}
	.st3{fill:none;stroke:#C4DDFC;stroke-width:2;}
</style>
<path class="st0" d="M60,30C60,13.4,46.6,0,30,0S0,13.4,0,30c0,9.8,4.7,18.5,12,24v-8c1.2-0.9,2-2.3,2-4s-0.8-3.1-2-4V28
	c0-1.7,1.3-3,3-3h30c1.7,0,3,1.3,3,3v10c-1.2,0.9-2,2.3-2,4s0.8,3.1,2,4v8C55.3,48.5,60,39.8,60,30z"/>
<path class="st1" d="M21.5,18c1.4,0,2.5,1.1,2.5,2.5v7c0,1.4-1.1,2.5-2.5,2.5c-1.4,0-2.5-1.1-2.5-2.5v-7C19,19.1,20.1,18,21.5,18z"
	/>
<path class="st1" d="M38.5,18c1.4,0,2.5,1.1,2.5,2.5v7c0,1.4-1.1,2.5-2.5,2.5c-1.4,0-2.5-1.1-2.5-2.5v-7C36,19.1,37.1,18,38.5,18z"
	/>
<path class="st0" d="M30,35c-0.6,0-1,0.4-1,1v7c0,0.6,0.4,1,1,1c0.6,0,1-0.4,1-1v-7C31,35.4,30.6,35,30,35z"/>
<path class="st2" d="M46,42c0-1.6,0.8-3.1,2-4V28c0-1.7-1.3-3-3-3H15c-1.7,0-3,1.3-3,3v10c1.2,0.9,2,2.3,2,4s-0.8,3.1-2,4v8
	c5,3.8,11.2,6,18,6c6.8,0,13-2.2,18-6v-8C46.8,45.1,46,43.6,46,42z M31,43c0,0.6-0.4,1-1,1c-0.6,0-1-0.4-1-1v-7c0-0.6,0.4-1,1-1
	c0.6,0,1,0.4,1,1V43z"/>
<path class="st3" d="M35,37.8c1.8,1.5,3,3.7,3,6.2c0,4.4-3.6,8-8,8c-4.4,0-8-3.6-8-8c0-2.5,1.2-4.7,3-6.2"/>
</svg>
