<svg 
 xmlns="http://www.w3.org/2000/svg"
 xmlns:xlink="http://www.w3.org/1999/xlink"
 width="26px" height="26px">
<path fill-rule="evenodd"  fill="rgb(196, 221, 252)"
 d="M4.000,0.000 L22.000,0.000 C24.209,0.000 26.000,1.791 26.000,4.000 L26.000,22.000 C26.000,24.209 24.209,26.000 22.000,26.000 L4.000,26.000 C1.791,26.000 0.000,24.209 0.000,22.000 L0.000,4.000 C0.000,1.791 1.791,0.000 4.000,0.000 Z"/>
<path fill-rule="evenodd"  fill="rgb(120, 181, 255)"
 d="M9.243,7.282 C8.907,7.629 8.907,8.199 9.243,8.545 L12.366,11.740 C12.703,12.087 13.256,12.087 13.593,11.740 L16.716,8.545 C17.052,8.199 17.052,7.629 16.716,7.282 C16.379,6.935 15.826,6.935 15.489,7.282 L13.847,8.952 L13.847,4.894 C13.847,4.403 13.456,4.001 12.979,4.001 C12.502,4.001 12.112,4.403 12.112,4.894 L12.112,8.952 L10.470,7.282 C10.131,6.935 9.580,6.935 9.243,7.282 Z"/>
<path fill-rule="evenodd"  fill="rgb(53, 106, 255)"
 d="M8.000,12.000 L18.000,12.000 C19.105,12.000 20.000,12.895 20.000,14.000 L20.000,26.000 L6.000,26.000 L6.000,14.000 C6.000,12.895 6.895,12.000 8.000,12.000 Z"/>
<path fill-rule="evenodd"  fill="rgb(196, 221, 252)"
 d="M15.794,18.177 L14.661,18.177 C14.418,18.177 13.730,18.272 13.497,18.156 C13.451,18.024 13.601,17.784 13.642,17.668 C13.761,17.333 13.875,17.002 13.994,16.662 L14.501,15.202 C14.568,15.012 14.258,14.929 14.128,15.074 L10.032,19.571 C9.939,19.674 10.068,19.819 10.213,19.819 L11.873,19.819 C11.987,19.819 12.427,19.761 12.499,19.848 C12.567,19.918 12.437,20.138 12.411,20.216 C12.101,21.077 11.801,21.937 11.501,22.798 C11.434,22.988 11.744,23.071 11.873,22.926 L15.964,18.429 C16.063,18.321 15.939,18.177 15.794,18.177 Z"/>
</svg>