<?xml version="1.0" encoding="utf-8"?>
<!-- Generator: Adobe Illustrator 22.0.0, SVG Export Plug-In . SVG Version: 6.00 Build 0)  -->
<svg version="1.1" id="图层_1" xmlns="http://www.w3.org/2000/svg" xmlns:xlink="http://www.w3.org/1999/xlink" x="0px" y="0px"
	 viewBox="0 0 60 60" style="enable-background:new 0 0 60 60;" xml:space="preserve">
<style type="text/css">
	.st0{fill:#C4DDFC;}
	.st1{fill:#78B5FF;}
	.st2{fill:#356AFF;}
</style>
<path class="st0" d="M60,30C60,13.4,46.6,0,30,0S0,13.4,0,30c0,8.9,3.9,16.9,10,22.4V32c0-1.7,1.3-3,3-3h3v-3c0-1.7,1.3-3,3-3h22
	c1.7,0,3,1.3,3,3v3h3c1.7,0,3,1.3,3,3v20.4C56.1,46.9,60,38.9,60,30z"/>
<path class="st1" d="M23,18h14c1.1,0,2,0.9,2,2v6c0,1.1-0.9,2-2,2H23c-1.1,0-2-0.9-2-2v-6C21,18.9,21.9,18,23,18z"/>
<path class="st0" d="M30,37c-0.6,0-1,0.4-1,1v10c0,0.6,0.4,1,1,1s1-0.4,1-1V38C31,37.4,30.6,37,30,37z"/>
<path class="st0" d="M18,37c-0.6,0-1,0.4-1,1v10c0,0.6,0.4,1,1,1s1-0.4,1-1V38C19,37.4,18.6,37,18,37z"/>
<path class="st0" d="M36,37c-0.6,0-1,0.4-1,1v10c0,0.6,0.4,1,1,1s1-0.4,1-1V38C37,37.4,36.6,37,36,37z"/>
<path class="st0" d="M24,37c-0.6,0-1,0.4-1,1v10c0,0.6,0.4,1,1,1s1-0.4,1-1V38C25,37.4,24.6,37,24,37z"/>
<path class="st0" d="M42,37c-0.6,0-1,0.4-1,1v10c0,0.6,0.4,1,1,1s1-0.4,1-1V38C43,37.4,42.5,37,42,37z"/>
<path class="st2" d="M47,29h-3v-3c0-1.7-1.3-3-3-3H19c-1.7,0-3,1.3-3,3v3h-3c-1.7,0-3,1.3-3,3v20.4c5.3,4.8,12.3,7.6,20,7.6
	s14.7-2.9,20-7.6V32C50,30.3,48.7,29,47,29z M19,48c0,0.6-0.4,1-1,1s-1-0.4-1-1V38c0-0.6,0.4-1,1-1s1,0.4,1,1V48z M25,48
	c0,0.6-0.4,1-1,1s-1-0.4-1-1V38c0-0.6,0.4-1,1-1s1,0.4,1,1V48z M31,48c0,0.6-0.4,1-1,1s-1-0.4-1-1V38c0-0.6,0.4-1,1-1s1,0.4,1,1V48z
	 M37,48c0,0.6-0.4,1-1,1s-1-0.4-1-1V38c0-0.6,0.4-1,1-1s1,0.4,1,1V48z M43,48c0,0.6-0.4,1-1,1s-1-0.4-1-1V38c0-0.6,0.4-1,1-1
	s1,0.4,1,1V48z"/>
</svg>
