<svg 
 xmlns="http://www.w3.org/2000/svg"
 xmlns:xlink="http://www.w3.org/1999/xlink"
 width="26px" height="26px">
<path fill-rule="evenodd"  fill="rgb(196, 221, 252)"
 d="M4.000,-0.000 L22.000,-0.000 C24.209,-0.000 26.000,1.791 26.000,4.000 L26.000,22.000 C26.000,24.209 24.209,26.000 22.000,26.000 L4.000,26.000 C1.791,26.000 -0.000,24.209 -0.000,22.000 L-0.000,4.000 C-0.000,1.791 1.791,-0.000 4.000,-0.000 Z"/>
<path fill-rule="evenodd"  fill="rgb(53, 106, 255)"
 d="M13.000,4.000 C17.970,4.000 22.000,8.029 22.000,13.000 C22.000,17.970 17.970,22.000 13.000,22.000 C8.029,22.000 4.000,17.970 4.000,13.000 C4.000,8.029 8.029,4.000 13.000,4.000 Z"/>
<path fill-rule="evenodd"  fill="rgb(120, 181, 255)"
 d="M19.490,15.058 C18.631,16.177 17.288,16.556 15.902,15.986 C15.313,15.744 14.794,15.347 14.171,14.978 C14.910,14.337 15.367,13.718 15.073,12.923 C15.767,12.665 16.444,12.432 17.105,12.161 C18.110,11.751 18.938,11.867 19.511,12.530 C20.169,13.292 20.161,14.181 19.490,15.058 ZM13.032,14.384 C12.395,14.348 11.897,13.810 11.932,13.197 C11.969,12.567 12.490,12.124 13.161,12.153 C13.816,12.181 14.299,12.695 14.262,13.322 C14.226,13.935 13.664,14.420 13.032,14.384 ZM14.071,11.214 C13.164,11.374 12.396,11.510 11.598,11.652 C11.275,11.383 10.849,10.966 10.360,10.636 C9.211,9.863 8.840,9.017 9.312,8.091 C9.801,7.135 10.910,6.768 12.162,7.150 C13.476,7.551 14.332,8.873 14.199,10.321 C14.166,10.687 14.095,11.050 14.071,11.214 ZM11.016,13.276 C11.203,14.314 11.646,14.915 12.420,15.090 C12.296,15.801 12.150,16.461 12.073,17.127 C11.960,18.141 11.425,18.822 10.556,18.969 C9.643,19.125 8.793,18.681 8.338,17.812 C7.682,16.563 7.994,15.139 9.188,14.273 C9.699,13.900 10.312,13.654 11.016,13.276 Z"/>
</svg>