<svg 
 xmlns="http://www.w3.org/2000/svg"
 xmlns:xlink="http://www.w3.org/1999/xlink"
 width="20px" height="20px">
<path fill-rule="evenodd"  fill="rgb(255, 255, 255)"
 d="M12.537,7.264 C12.935,7.662 13.631,7.662 14.029,7.264 L17.810,3.582 L17.810,6.567 C17.810,6.965 18.109,7.363 18.607,7.363 L19.204,7.363 C19.602,7.363 19.999,7.065 19.999,6.667 L19.999,1.194 L19.900,1.194 L19.900,0.796 C19.900,0.597 19.801,0.398 19.701,0.199 C19.602,0.099 19.403,-0.000 19.104,-0.000 L13.333,-0.000 C12.935,-0.000 12.537,0.398 12.537,0.796 L12.537,1.393 C12.636,1.890 12.935,2.189 13.432,2.189 L16.318,2.189 L12.636,5.870 C12.139,6.169 12.139,6.866 12.537,7.264 ZM7.363,12.537 C6.965,12.139 6.268,12.139 5.870,12.537 L2.089,16.219 L2.089,13.333 C2.089,12.935 1.791,12.537 1.293,12.537 L0.795,12.537 C0.397,12.537 -0.000,12.836 -0.000,13.234 L-0.000,18.607 L0.099,18.607 L-0.000,19.005 C-0.000,19.204 0.099,19.403 0.199,19.602 C0.298,19.701 0.497,19.801 0.795,19.801 L1.194,19.801 L6.666,19.900 C7.064,19.900 7.462,19.502 7.462,19.104 L7.462,18.507 C7.363,18.010 7.064,17.711 6.567,17.711 L3.581,17.711 L7.363,14.030 C7.761,13.632 7.761,13.035 7.363,12.537 ZM19.801,18.706 L19.801,13.333 C19.801,12.935 19.403,12.637 19.004,12.637 L18.407,12.637 C18.010,12.637 17.612,13.035 17.612,13.433 L17.612,16.318 L13.830,12.637 C13.432,12.239 12.736,12.239 12.338,12.637 C11.940,13.035 11.940,13.731 12.338,14.129 L16.119,17.811 L13.234,17.811 C12.836,17.811 12.437,18.109 12.338,18.607 L12.338,19.204 C12.338,19.602 12.736,20.000 13.133,20.000 L18.507,19.900 L18.905,19.900 C19.104,19.900 19.303,19.801 19.502,19.701 C19.602,19.602 19.701,19.403 19.701,19.104 L19.801,18.706 ZM3.681,2.090 L6.567,2.090 C6.965,2.090 7.363,1.791 7.462,1.293 L7.462,0.796 C7.363,0.298 6.965,-0.000 6.567,-0.000 L1.194,0.099 L0.795,0.099 C0.597,0.099 0.397,0.199 0.199,0.298 C0.099,0.398 0.099,0.597 0.099,0.796 L0.199,1.194 L0.099,1.194 L0.099,6.667 C0.099,7.065 0.397,7.363 0.895,7.363 L1.492,7.363 C1.890,7.363 2.288,7.065 2.288,6.567 L2.288,3.582 L6.069,7.264 C6.467,7.662 7.164,7.662 7.562,7.264 C7.960,6.866 7.960,6.169 7.562,5.771 L3.681,2.090 Z"/>
</svg>