<svg 
 xmlns="http://www.w3.org/2000/svg"
 xmlns:xlink="http://www.w3.org/1999/xlink"
 width="21px" height="21px">
<path fill-rule="evenodd"  fill="rgb(255, 255, 255)"
 d="M19.708,1.871 L15.702,5.781 L18.681,5.781 C19.092,5.781 19.503,6.098 19.605,6.626 L19.605,7.155 C19.503,7.683 19.092,8.000 18.681,8.000 L13.135,7.894 L12.725,7.894 C12.519,7.894 12.314,7.789 12.108,7.683 C12.006,7.577 12.006,7.366 12.006,7.155 L12.108,6.732 L12.006,6.732 L12.006,0.920 C12.006,0.497 12.314,0.180 12.827,0.180 L13.444,0.180 C13.854,0.180 14.265,0.497 14.265,1.026 L14.265,4.196 L18.167,0.286 C18.578,-0.137 19.297,-0.137 19.708,0.286 C20.119,0.709 20.119,1.448 19.708,1.871 ZM7.204,19.820 L6.588,19.820 C6.177,19.820 5.766,19.503 5.766,18.974 L5.766,15.804 L1.864,19.714 C1.453,20.137 0.734,20.137 0.324,19.714 C-0.087,19.291 -0.087,18.552 0.324,18.129 L4.329,14.219 L1.350,14.219 C0.939,14.219 0.529,13.902 0.426,13.374 L0.426,12.845 C0.529,12.317 0.939,12.000 1.350,12.000 L6.896,12.106 L7.307,12.106 C7.512,12.106 7.718,12.211 7.923,12.317 C8.026,12.423 8.026,12.634 8.026,12.845 L7.923,13.268 L8.026,13.268 L8.026,19.080 C8.026,19.503 7.718,19.820 7.204,19.820 ZM7.892,7.684 C7.688,7.790 7.483,7.895 7.278,7.895 L6.869,7.895 L1.345,8.000 C0.936,8.000 0.527,7.684 0.424,7.158 L0.424,6.632 C0.527,6.105 0.936,5.790 1.345,5.790 L4.312,5.790 L0.322,1.895 C-0.087,1.474 -0.087,0.737 0.322,0.316 C0.731,-0.105 1.447,-0.105 1.857,0.316 L5.744,4.211 L5.744,1.053 C5.744,0.527 6.153,0.211 6.562,0.211 L7.176,0.211 C7.688,0.211 7.994,0.527 7.994,0.948 L7.994,6.737 L7.892,6.737 L7.994,7.158 C7.994,7.369 7.994,7.579 7.892,7.684 ZM12.139,12.316 C12.344,12.210 12.548,12.105 12.753,12.105 L13.162,12.105 L18.686,12.000 C19.096,12.000 19.504,12.316 19.607,12.842 L19.607,13.368 C19.504,13.895 19.096,14.210 18.686,14.210 L15.719,14.210 L19.709,18.105 C20.118,18.526 20.118,19.263 19.709,19.684 C19.300,20.105 18.584,20.105 18.175,19.684 L14.287,15.789 L14.287,18.947 C14.287,19.473 13.878,19.789 13.469,19.789 L12.855,19.789 C12.344,19.789 12.037,19.473 12.037,19.052 L12.037,13.263 L12.139,13.263 L12.037,12.842 C12.037,12.631 12.037,12.421 12.139,12.316 Z"/>
</svg>