<svg 
 xmlns="http://www.w3.org/2000/svg"
 xmlns:xlink="http://www.w3.org/1999/xlink"
 width="18.75px" height="18.75px">
<path fill-rule="evenodd"  
 d="M15.204,14.320 L2.811,14.320 C1.311,14.320 0.012,13.127 0.012,11.536 L0.012,2.784 C0.012,1.193 1.212,-0.000 2.811,-0.000 L15.304,-0.000 C16.803,-0.000 18.002,1.193 18.002,2.784 L18.002,11.635 C18.002,13.127 16.803,14.320 15.204,14.320 ZM2.811,1.591 C2.111,1.591 1.612,2.088 1.612,2.685 L1.612,11.536 C1.612,12.232 2.211,12.729 2.811,12.729 L15.304,12.729 C16.003,12.729 16.503,12.132 16.503,11.536 L16.503,2.784 C16.503,2.088 15.903,1.591 15.304,1.591 L2.811,1.591 ZM3.511,16.409 L14.604,16.409 C15.004,16.409 15.403,16.707 15.403,17.204 C15.403,17.602 15.104,18.000 14.604,18.000 L3.511,18.000 C3.110,18.000 2.711,17.701 2.711,17.204 C2.711,16.707 3.011,16.409 3.511,16.409 Z"/>
<path fill-rule="evenodd"   stroke-width="1.5px" stroke-linecap="butt" stroke-linejoin="miter" 
 d="M5.006,5.718 L8.334,3.218 C8.702,2.942 9.298,2.942 9.665,3.218 L12.992,5.718 "/>
<path fill-rule="evenodd"   stroke-width="1.5px" stroke-linecap="butt" stroke-linejoin="miter" 
 d="M5.006,9.718 L8.334,7.218 C8.702,6.942 9.298,6.942 9.665,7.218 L12.992,9.718 "/>
</svg>