<svg 
 xmlns="http://www.w3.org/2000/svg"
 xmlns:xlink="http://www.w3.org/1999/xlink"
 width="19px" height="18px">
<path fill-rule="evenodd" 
 d="M16.173,14.320 L10.776,14.320 L10.776,16.409 L15.573,16.409 C15.973,16.409 16.373,16.707 16.373,17.204 C16.373,17.602 16.072,18.000 15.573,18.000 L4.479,18.000 C4.079,18.000 3.680,17.701 3.680,17.204 C3.680,16.707 3.980,16.409 4.479,16.409 L9.177,16.409 L9.177,14.320 L3.779,14.320 C2.280,14.320 0.981,13.127 0.981,11.536 L0.981,2.784 C0.981,1.193 2.180,-0.000 3.779,-0.000 L16.273,-0.000 C17.772,-0.000 18.971,1.193 18.971,2.784 L18.971,11.635 C18.971,13.127 17.772,14.320 16.173,14.320 ZM17.003,3.070 C17.003,2.444 16.439,1.997 15.874,1.997 L4.116,1.997 C3.457,1.997 2.987,2.444 2.987,2.981 L2.987,10.937 C2.987,11.562 3.551,12.009 4.116,12.009 L15.874,12.009 C16.532,12.009 17.003,11.473 17.003,10.937 L17.003,3.070 ZM14.173,9.864 L5.606,9.864 C5.203,9.864 4.800,9.569 4.800,9.077 C4.901,8.585 5.203,8.290 5.606,8.290 L14.173,8.290 C14.576,8.290 14.979,8.585 14.979,9.077 C14.979,9.470 14.678,9.864 14.173,9.864 ZM11.149,6.914 L5.606,6.914 C5.203,6.914 4.800,6.619 4.800,6.127 C4.901,5.635 5.203,5.340 5.606,5.340 L11.149,5.340 C11.553,5.340 11.956,5.635 11.956,6.127 C11.956,6.520 11.653,6.914 11.149,6.914 Z"/>
</svg>