<svg 
 xmlns="http://www.w3.org/2000/svg"
 xmlns:xlink="http://www.w3.org/1999/xlink"
 width="18px" height="18px">
<path fill-rule="evenodd"  fill="rgb(25, 204, 174)"
 d="M15.204,14.008 L9.807,14.008 L9.807,16.409 L14.604,16.409 C15.004,16.409 15.404,16.707 15.404,17.204 C15.404,17.602 15.104,18.000 14.604,18.000 L3.510,18.000 C3.110,18.000 2.711,17.701 2.711,17.204 C2.711,16.707 3.011,16.409 3.510,16.409 L8.208,16.409 L8.208,14.008 L2.811,14.008 C1.311,14.008 0.012,12.840 0.012,11.284 L0.012,2.724 C0.012,1.167 1.212,-0.000 2.811,-0.000 L15.304,-0.000 C16.803,-0.000 18.002,1.167 18.002,2.724 L18.002,11.381 C18.002,12.840 16.803,14.008 15.204,14.008 ZM16.003,3.178 C16.003,2.489 15.439,1.997 14.874,1.997 L3.116,1.997 C2.458,1.997 1.987,2.489 1.987,3.080 L1.987,10.840 C1.987,11.528 2.552,12.020 3.116,12.020 L14.874,12.020 C15.533,12.020 16.003,11.430 16.003,10.840 L16.003,3.178 ZM13.201,9.995 L4.784,9.995 C4.388,9.995 3.992,9.625 3.992,9.007 C4.092,8.389 4.388,8.019 4.784,8.019 L13.201,8.019 C13.597,8.019 13.993,8.389 13.993,9.007 C13.993,9.501 13.696,9.995 13.201,9.995 ZM10.225,7.016 L4.784,7.016 C4.388,7.016 3.992,6.638 3.992,6.008 C4.092,5.378 4.388,5.000 4.784,5.000 L10.225,5.000 C10.620,5.000 11.016,5.378 11.016,6.008 C11.016,6.512 10.719,7.016 10.225,7.016 Z"/>
</svg>