<svg 
 xmlns="http://www.w3.org/2000/svg"
 xmlns:xlink="http://www.w3.org/1999/xlink"
 width="18px" height="16px">
<path fill-rule="evenodd"
 d="M17.956,15.094 C17.956,15.496 17.756,15.797 17.255,15.797 C16.754,15.797 16.454,15.496 16.454,15.094 C16.754,11.981 15.051,9.772 12.646,9.270 C12.446,9.270 12.145,8.968 12.145,8.667 C12.145,8.366 12.346,8.065 12.646,7.964 C13.648,7.362 14.250,6.358 14.250,5.152 C14.250,3.947 13.548,2.742 12.446,2.240 C11.945,1.939 11.945,1.437 12.045,1.236 C12.245,0.834 12.646,0.935 13.047,1.035 C13.448,1.236 14.149,1.638 14.850,2.742 C15.252,3.445 15.552,4.349 15.552,5.253 C15.552,6.056 15.452,6.960 14.951,7.663 C14.850,7.964 14.650,8.265 14.350,8.466 C15.152,8.868 16.053,9.571 16.654,10.274 C17.155,10.876 17.455,11.178 17.756,12.282 C17.956,12.985 18.057,13.989 17.956,15.094 ZM11.745,11.780 C12.847,13.387 12.847,15.094 12.847,15.094 C12.847,16.098 12.145,15.998 12.145,15.998 C11.344,15.897 11.444,15.094 11.444,15.094 C11.444,14.492 11.244,13.789 11.244,13.789 C10.542,11.780 9.039,11.077 9.039,11.077 C7.937,10.374 6.935,10.374 6.935,10.374 C5.433,10.174 4.230,10.876 4.230,10.876 C3.028,11.379 2.427,12.282 2.427,12.282 C2.026,12.985 1.725,13.688 1.725,13.688 C1.425,14.492 1.425,15.194 1.425,15.194 C1.425,15.998 0.824,15.998 0.824,15.998 C0.423,15.998 0.122,15.697 0.122,15.697 C-0.078,15.395 0.022,14.692 0.022,14.692 C0.323,11.579 2.928,9.973 2.727,9.973 C3.065,9.747 3.406,9.572 3.745,9.428 C2.300,8.543 1.329,6.941 1.329,5.077 C1.329,2.252 3.533,-0.007 6.288,-0.007 C9.043,-0.007 11.248,2.252 11.248,5.077 C11.248,6.923 10.297,8.514 8.875,9.404 C8.980,9.444 9.039,9.470 9.039,9.470 C10.743,10.174 11.745,11.780 11.745,11.780 ZM6.288,1.687 C4.415,1.687 2.982,3.156 2.982,5.077 C2.982,6.997 4.415,8.466 6.288,8.466 C8.162,8.466 9.595,6.997 9.595,5.077 C9.595,3.156 8.162,1.687 6.288,1.687 Z"/>
</svg>