<svg 
 xmlns="http://www.w3.org/2000/svg"
 xmlns:xlink="http://www.w3.org/1999/xlink"
 width="26px" height="26px">
<path fill-rule="evenodd"  fill="rgb(196, 221, 252)"
 d="M4.000,-0.000 L22.000,-0.000 C24.209,-0.000 26.000,1.791 26.000,4.000 L26.000,22.000 C26.000,24.209 24.209,26.000 22.000,26.000 L4.000,26.000 C1.791,26.000 -0.000,24.209 -0.000,22.000 L-0.000,4.000 C-0.000,1.791 1.791,-0.000 4.000,-0.000 Z"/>
<path fill-rule="evenodd"  fill="rgb(53, 106, 255)"
 d="M6.000,9.000 L20.000,9.000 L20.000,26.000 L6.000,26.000 L6.000,9.000 Z"/>
<path fill-rule="evenodd"  fill="rgb(120, 181, 255)"
 d="M5.500,6.000 L20.500,6.000 C21.328,6.000 22.000,6.671 22.000,7.500 C22.000,8.328 21.328,9.000 20.500,9.000 L5.500,9.000 C4.672,9.000 4.000,8.328 4.000,7.500 C4.000,6.671 4.672,6.000 5.500,6.000 Z"/>
<path fill-rule="evenodd"  fill="rgb(196, 221, 252)"
 d="M16.000,21.000 L15.000,21.000 L15.000,22.500 C15.000,22.776 14.776,23.000 14.500,23.000 C14.224,23.000 14.000,22.776 14.000,22.500 L14.000,21.000 L12.000,21.000 L12.000,22.500 C12.000,22.776 11.776,23.000 11.500,23.000 C11.224,23.000 11.000,22.776 11.000,22.500 L11.000,21.000 L10.000,21.000 C9.448,21.000 9.000,20.552 9.000,20.000 C9.000,19.448 9.448,19.000 10.000,19.000 L10.000,15.000 C10.000,13.343 11.343,12.000 13.000,12.000 C14.657,12.000 16.000,13.343 16.000,15.000 L16.000,19.000 C16.552,19.000 17.000,19.448 17.000,20.000 C17.000,20.552 16.552,21.000 16.000,21.000 Z"/>
</svg>