<svg 
 xmlns="http://www.w3.org/2000/svg"
 xmlns:xlink="http://www.w3.org/1999/xlink"
 width="28.5px" height="28.5px">
<path fill-rule="evenodd"  fill="rgb(255, 255, 255)"
 d="M12.490,14.514 L17.075,13.203 L13.800,9.927 L12.490,14.514 L12.490,14.514 ZM24.737,5.539 L21.462,2.263 L14.256,9.471 L17.531,12.747 L24.737,5.539 L24.737,5.539 ZM26.259,2.787 L24.212,0.739 C23.873,0.400 23.305,0.418 22.943,0.780 L21.960,1.763 L25.235,5.039 L26.218,4.056 C26.580,3.694 26.598,3.126 26.259,2.787 L26.259,2.787 Z"/>
<path fill-rule="evenodd"  stroke="rgb(255, 255, 255)" stroke-width="3px" stroke-linecap="round" stroke-linejoin="miter" fill="none"
 d="M25.515,13.489 C25.515,15.559 25.515,17.550 25.515,19.130 C25.515,21.143 25.515,22.490 25.515,22.490 C25.515,24.148 24.172,25.491 22.514,25.491 C22.514,25.491 20.539,25.491 17.897,25.491 C14.385,25.491 9.694,25.491 6.899,25.491 C5.449,25.491 4.510,25.491 4.510,25.491 C2.852,25.491 1.509,24.148 1.509,22.490 C1.509,22.490 1.509,20.832 1.509,18.521 C1.509,15.544 1.509,11.485 1.509,8.497 C1.509,6.165 1.509,4.486 1.509,4.486 C1.509,2.828 2.852,1.485 4.510,1.485 C4.510,1.485 6.023,1.485 8.238,1.485 C9.734,1.485 11.549,1.485 13.433,1.485 "/>
</svg>