<svg 
 xmlns="http://www.w3.org/2000/svg"
 xmlns:xlink="http://www.w3.org/1999/xlink"
 width="52px" height="52px">
<defs>
<filter id="Filter_0">
    <feFlood flood-color="rgb(255, 116, 68)" flood-opacity="1" result="floodOut" />
    <feComposite operator="atop" in="floodOut" in2="SourceGraphic" result="compOut" />
    <feBlend mode="normal" in="compOut" in2="SourceGraphic" />
</filter>

</defs>
<g filter="url(#Filter_0)">
<path fill-rule="evenodd"  fill="rgb(111, 117, 145)"
 d="M25.999,15.737 C31.668,15.737 36.263,20.332 36.263,26.000 C36.263,31.668 31.668,36.263 25.999,36.263 C20.332,36.263 15.736,31.668 15.736,26.000 C15.736,20.332 20.332,15.737 25.999,15.737 Z"/>
<path fill-rule="evenodd"  opacity="0.302" fill="rgb(111, 117, 145)"
 d="M0.379,21.840 C0.127,23.316 -0.001,24.820 -0.001,26.339 C-0.001,38.695 8.486,49.311 20.249,52.000 L21.108,48.199 C11.106,45.914 3.877,36.870 3.877,26.339 C3.877,25.041 3.986,23.757 4.200,22.498 L0.379,21.840 M50.875,18.200 L47.174,19.329 C47.809,21.461 48.135,23.691 48.135,25.969 C48.135,36.861 40.610,46.140 30.376,48.158 L31.114,52.000 C43.166,49.624 52.000,38.732 52.000,25.969 C52.000,23.308 51.618,20.697 50.875,18.200 M26.326,-0.000 C18.083,-0.000 10.485,3.998 5.663,10.642 L8.731,13.000 C12.837,7.342 19.302,3.940 26.326,3.940 C33.030,3.940 39.232,7.037 43.366,12.268 L46.336,9.781 C41.483,3.640 34.194,-0.000 26.326,-0.000 "/>
<path fill-rule="evenodd"  opacity="0.6" fill="rgb(111, 117, 145)"
 d="M5.776,23.226 C5.575,24.402 5.473,25.599 5.473,26.808 C5.473,36.642 12.248,45.087 21.634,47.225 L22.477,43.456 C14.828,41.714 9.303,34.825 9.303,26.808 C9.303,25.819 9.387,24.842 9.550,23.883 L5.776,23.226 M46.303,20.618 L42.647,21.746 C43.136,23.349 43.385,25.025 43.385,26.738 C43.385,34.933 37.588,41.921 29.691,43.442 L30.410,47.225 C40.100,45.357 47.210,36.789 47.210,26.738 C47.210,24.642 46.902,22.585 46.303,20.618 M26.348,5.488 C19.664,5.488 13.504,8.724 9.595,14.100 L12.687,16.444 C15.877,12.056 20.896,9.419 26.348,9.419 C31.553,9.419 36.369,11.820 39.579,15.876 L42.573,13.404 C38.639,8.435 32.728,5.488 26.348,5.488 "/>
<path fill-rule="evenodd"  opacity="0.8" fill="rgb(111, 117, 145)"
 d="M10.501,23.916 C10.343,24.793 10.263,25.686 10.263,26.588 C10.263,33.909 15.554,40.173 22.853,41.751 L23.678,37.943 C18.140,36.745 14.164,32.038 14.164,26.588 C14.164,25.918 14.222,25.256 14.340,24.606 L10.501,23.916 M41.054,21.293 L37.309,22.451 C37.649,23.588 37.823,24.779 37.823,25.996 C37.823,31.810 33.796,36.764 28.322,37.841 L29.064,41.751 C36.377,40.313 41.737,33.722 41.737,25.996 C41.737,24.386 41.505,22.805 41.054,21.293 M25.939,10.278 C20.912,10.278 16.285,12.781 13.358,16.927 L16.470,19.195 C18.689,16.051 22.167,14.169 25.939,14.169 C29.539,14.169 32.874,15.882 35.107,18.786 L38.124,16.391 C35.178,12.558 30.738,10.278 25.939,10.278 "/>
</g>
</svg>