<svg 
 xmlns="http://www.w3.org/2000/svg"
 xmlns:xlink="http://www.w3.org/1999/xlink"
 width="20px" height="20px">
<path fill-rule="evenodd"  fill="rgb(102, 102, 102)"
 d="M9.999,20.000 C4.454,20.000 -0.000,15.545 -0.000,10.000 C-0.000,4.454 4.454,-0.000 9.999,-0.000 C15.545,-0.000 20.000,4.454 20.000,10.000 C20.000,15.545 15.545,20.000 9.999,20.000 ZM9.999,1.363 C5.272,1.363 1.363,5.273 1.363,10.000 C1.363,14.727 5.272,18.636 9.999,18.636 C14.727,18.636 18.636,14.727 18.636,10.000 C18.636,5.273 14.727,1.363 9.999,1.363 ZM9.999,6.545 C9.363,6.545 8.909,6.000 8.909,5.454 C8.909,4.909 9.454,4.363 9.999,4.363 C10.545,4.363 11.091,4.909 11.091,5.454 C11.091,6.000 10.636,6.545 9.999,6.545 ZM9.999,7.454 C10.545,7.454 10.909,7.818 10.909,8.363 L10.909,14.727 C10.909,15.273 10.545,15.636 9.999,15.636 C9.454,15.636 9.091,15.273 9.091,14.727 L9.091,8.363 C9.091,7.909 9.454,7.454 9.999,7.454 Z"/>
</svg>