<svg 
 xmlns="http://www.w3.org/2000/svg"
 xmlns:xlink="http://www.w3.org/1999/xlink"
 width="16px" height="18px">
<path fill-rule="evenodd"
 d="M15.900,11.900 C15.799,12.100 15.700,12.400 15.599,12.600 C15.200,13.300 14.700,14.000 14.100,14.600 C13.499,15.100 12.499,15.800 11.100,16.600 C10.099,17.100 9.199,17.600 8.600,17.900 L8.099,18.000 L7.399,17.700 L7.200,17.600 C5.399,16.800 2.999,15.500 1.900,14.500 C0.399,13.100 -0.001,11.700 -0.001,11.700 L-0.001,2.400 L8.000,-0.000 L15.999,2.400 L15.999,11.700 L15.900,11.900 ZM14.499,3.500 L8.000,1.600 L1.499,3.500 L1.499,11.500 C1.600,11.700 1.600,11.800 1.699,12.000 C1.999,12.500 2.399,13.000 2.900,13.500 C3.599,14.200 5.499,15.300 7.699,16.300 L7.899,16.400 L8.099,16.500 C8.600,16.300 9.500,15.800 10.399,15.300 C11.999,14.400 12.799,13.800 13.100,13.500 C13.600,13.000 13.999,12.500 14.299,12.000 C14.400,11.800 14.499,11.700 14.499,11.500 L14.499,3.500 ZM9.799,10.300 C10.199,10.300 10.499,10.600 10.499,11.000 C10.499,11.400 10.199,11.700 9.799,11.700 L8.699,11.700 L8.699,12.800 C8.699,13.200 8.399,13.500 8.000,13.500 C7.600,13.500 7.300,13.200 7.300,12.800 L7.300,9.400 C6.299,9.100 5.499,8.100 5.499,7.000 C5.499,5.600 6.599,4.500 8.000,4.500 C9.399,4.500 10.499,5.600 10.499,7.000 C10.499,8.100 9.699,9.100 8.699,9.400 L8.699,10.300 L9.799,10.300 ZM9.300,7.000 C9.300,6.300 8.699,5.700 8.000,5.700 C7.300,5.700 6.700,6.300 6.700,7.000 C6.700,7.700 7.300,8.300 8.000,8.300 C8.699,8.300 9.300,7.700 9.300,7.000 Z"/>
</svg>