<?xml version="1.0" standalone="no"?><!DOCTYPE svg PUBLIC "-//W3C//DTD SVG 1.1//EN" "http://www.w3.org/Graphics/SVG/1.1/DTD/svg11.dtd"><svg t="1586740397403" class="icon" viewBox="0 0 1024 1024" version="1.1" xmlns="http://www.w3.org/2000/svg" p-id="3070" xmlns:xlink="http://www.w3.org/1999/xlink" width="200" height="200"><defs><style type="text/css"></style></defs><path d="M319.55 533.163l61.386-27.33 54.66 122.774-61.386 27.33zM588.352 628.613l54.66-122.774 61.388 27.33-54.66 122.775zM482 323.3h67.2v134.4H482z" p-id="3071" fill="#1E9AFF"></path><path d="M64 64v896h896V64H64z m108.4 837.2c-18.6 0-33.6-15-33.6-33.6s15-33.6 33.6-33.6 33.6 15 33.6 33.6c0 18.5-15 33.6-33.6 33.6z m0-694.4c-18.6 0-33.6-15-33.6-33.6s15-33.6 33.6-33.6 33.6 15 33.6 33.6c0 18.5-15 33.6-33.6 33.6z m339.6 574c-148.5 0-268.8-120.4-268.8-268.8 0-148.5 120.3-268.8 268.8-268.8S780.8 363.5 780.8 512c0 148.4-120.3 268.8-268.8 268.8z m331.5 121.3c-18.6 0-33.6-15-33.6-33.6s15-33.6 33.6-33.6 33.6 15 33.6 33.6-15.1 33.6-33.6 33.6z m0.9-695.3c-18.6 0-33.6-15-33.6-33.6s15-33.6 33.6-33.6 33.6 15 33.6 33.6c0 18.5-15 33.6-33.6 33.6z" p-id="3072" fill="#1E9AFF"></path></svg>