<svg 
 xmlns="http://www.w3.org/2000/svg"
 xmlns:xlink="http://www.w3.org/1999/xlink"
 width="18px" height="18px">
<path fill-rule="evenodd"  
 d="M15.199,18.000 L2.799,18.000 C1.200,18.000 -0.001,16.800 -0.001,15.200 L-0.001,2.800 C-0.001,1.200 1.200,-0.000 2.799,-0.000 L15.299,-0.000 C16.799,-0.000 17.999,1.200 17.999,2.800 L17.999,15.300 C17.999,16.800 16.799,18.000 15.199,18.000 ZM2.799,16.400 L15.299,16.400 C15.999,16.400 16.499,15.800 16.499,15.200 L16.499,12.500 L1.600,12.500 L1.600,15.200 C1.600,15.900 2.200,16.400 2.799,16.400 ZM16.499,11.000 L16.499,7.500 L1.600,7.500 L1.600,11.000 L16.499,11.000 ZM15.299,1.600 L2.799,1.600 C2.099,1.600 1.600,2.100 1.600,2.700 L1.600,6.000 L16.499,6.000 L16.499,2.800 C16.499,2.100 15.899,1.600 15.299,1.600 ZM5.799,4.700 L4.200,4.700 C3.799,4.700 3.499,4.400 3.499,4.000 C3.499,3.600 3.799,3.300 4.200,3.300 L5.799,3.300 C6.200,3.300 6.499,3.600 6.499,4.000 C6.499,4.400 6.200,4.700 5.799,4.700 ZM4.200,8.500 L5.799,8.500 C6.200,8.500 6.499,8.800 6.499,9.200 C6.499,9.600 6.200,9.900 5.799,9.900 L4.200,9.900 C3.799,9.900 3.499,9.600 3.499,9.200 C3.499,8.800 3.799,8.500 4.200,8.500 ZM4.200,13.500 L5.799,13.500 C6.200,13.500 6.499,13.800 6.499,14.200 C6.499,14.600 6.200,14.900 5.799,14.900 L4.200,14.900 C3.799,14.900 3.499,14.600 3.499,14.200 C3.499,13.800 3.799,13.500 4.200,13.500 Z"/>
</svg>