<svg 
 xmlns="http://www.w3.org/2000/svg"
 xmlns:xlink="http://www.w3.org/1999/xlink"
 width="26px" height="26px">
<path fill-rule="evenodd"  fill="rgb(196, 221, 252)"
 d="M4.000,0.000 L22.000,0.000 C24.209,0.000 26.000,1.791 26.000,4.000 L26.000,22.000 C26.000,24.209 24.209,26.000 22.000,26.000 L4.000,26.000 C1.791,26.000 0.000,24.209 0.000,22.000 L0.000,4.000 C0.000,1.791 1.791,0.000 4.000,0.000 Z"/>
<path fill-rule="evenodd"  fill="rgb(120, 181, 255)"
 d="M17.500,26.000 L8.500,26.000 C7.672,26.000 7.000,25.328 7.000,24.500 C7.000,23.672 7.672,23.000 8.500,23.000 L12.000,23.000 L12.000,18.000 C12.000,17.448 12.448,17.000 13.000,17.000 C13.552,17.000 14.000,17.448 14.000,18.000 L14.000,23.000 L17.500,23.000 C18.328,23.000 19.000,23.672 19.000,24.500 C19.000,25.328 18.328,26.000 17.500,26.000 Z"/>
<path fill-rule="evenodd"  fill="rgb(53, 106, 255)"
 d="M20.000,21.000 L6.000,21.000 C4.895,21.000 4.000,20.105 4.000,19.000 L4.000,8.000 C4.000,6.895 4.895,6.000 6.000,6.000 L20.000,6.000 C21.105,6.000 22.000,6.895 22.000,8.000 L22.000,19.000 C22.000,20.105 21.105,21.000 20.000,21.000 ZM16.678,11.562 C17.086,11.207 17.086,10.631 16.678,10.275 C16.270,9.920 15.608,9.920 15.200,10.275 L12.984,12.205 L10.767,10.275 C10.359,9.920 9.697,9.920 9.289,10.275 C8.881,10.631 8.881,11.207 9.289,11.562 L11.506,13.492 L9.289,15.422 C8.881,15.778 8.881,16.354 9.289,16.709 C9.697,17.065 10.359,17.065 10.767,16.709 L12.984,14.779 L15.200,16.709 C15.608,17.065 16.270,17.065 16.678,16.709 C17.086,16.354 17.086,15.778 16.678,15.422 L14.461,13.492 L16.678,11.562 Z"/>
</svg>