<svg 
 xmlns="http://www.w3.org/2000/svg"
 xmlns:xlink="http://www.w3.org/1999/xlink"
 width="34px" height="43px">
<path fill-rule="evenodd"  fill="rgb(143, 113, 255)"
 d="M27.279,31.208 L28.876,36.958 C29.441,38.375 29.106,39.927 27.968,41.074 C27.093,42.265 25.623,42.999 24.071,42.999 L9.913,42.999 C8.186,42.999 6.993,42.347 6.159,40.943 C5.353,39.865 5.056,38.458 5.343,37.009 L6.907,31.366 C2.705,28.117 0.203,23.110 0.203,17.924 C0.203,8.738 7.892,0.979 16.993,0.979 C26.094,0.979 33.782,8.739 33.782,17.924 C33.782,23.011 31.355,27.960 27.279,31.208 ZM9.403,38.543 C9.463,38.654 9.503,38.729 9.543,38.810 C9.577,38.879 9.613,38.922 9.913,38.922 L24.316,38.922 C24.480,38.922 24.555,38.886 24.741,38.703 L24.826,38.543 C24.874,38.452 24.958,38.300 24.960,38.260 L24.909,38.125 L23.605,33.448 C19.466,35.300 14.762,35.336 10.599,33.543 L9.344,38.065 C9.254,38.269 9.254,38.269 9.403,38.543 ZM16.993,4.810 C10.081,4.810 4.243,10.702 4.243,17.677 C4.243,24.652 10.081,30.545 16.993,30.545 C23.904,30.545 29.742,24.652 29.742,17.677 C29.742,10.702 23.904,4.810 16.993,4.810 ZM16.993,25.260 C12.850,25.260 9.480,21.859 9.480,17.677 C9.480,13.496 12.850,10.095 16.993,10.095 C21.275,10.095 24.505,13.355 24.505,17.677 C24.505,21.859 21.134,25.260 16.993,25.260 ZM16.993,14.419 C15.110,14.419 13.519,15.911 13.519,17.677 C13.519,19.642 15.045,21.182 16.993,21.182 C18.941,21.182 20.465,19.642 20.465,17.677 C20.465,15.911 18.876,14.419 16.993,14.419 Z"/>
</svg>