<svg 
 xmlns="http://www.w3.org/2000/svg"
 xmlns:xlink="http://www.w3.org/1999/xlink"
 width="46px" height="58px">
<path fill-rule="evenodd"  fill="rgb(25, 204, 174)"
 d="M37.099,41.734 L39.288,49.671 C40.061,51.627 39.603,53.770 38.044,55.354 C36.843,56.997 34.830,58.011 32.702,58.011 L13.294,58.011 C10.928,58.011 9.292,57.110 8.149,55.173 C7.045,53.684 6.637,51.741 7.030,49.741 L9.173,41.951 C3.414,37.467 -0.015,30.555 -0.015,23.395 C-0.015,10.715 10.524,0.003 22.999,0.003 C35.474,0.003 46.013,10.715 46.013,23.396 C46.013,30.417 42.685,37.249 37.099,41.734 ZM12.596,51.859 C12.679,52.012 12.733,52.115 12.787,52.228 C12.834,52.323 12.884,52.383 13.294,52.383 L33.037,52.383 C33.262,52.383 33.365,52.333 33.620,52.080 L33.736,51.859 C33.803,51.734 33.917,51.524 33.921,51.468 L33.850,51.282 L32.062,44.826 C26.389,47.382 19.941,47.432 14.235,44.957 L12.515,51.199 C12.391,51.481 12.391,51.481 12.596,51.859 ZM22.999,5.291 C13.525,5.291 5.522,13.426 5.522,23.055 C5.522,32.682 13.525,40.818 22.999,40.818 C32.472,40.818 40.475,32.682 40.475,23.055 C40.475,13.426 32.472,5.291 22.999,5.291 ZM22.999,33.523 C17.321,33.523 12.701,28.827 12.701,23.055 C12.701,17.283 17.321,12.588 22.999,12.588 C28.869,12.588 33.296,17.088 33.296,23.055 C33.296,28.827 28.677,33.523 22.999,33.523 ZM22.999,18.557 C20.419,18.557 18.239,20.616 18.239,23.055 C18.239,25.767 20.330,27.893 22.999,27.893 C25.668,27.893 27.759,25.767 27.759,23.055 C27.759,20.616 25.580,18.557 22.999,18.557 Z"/>
</svg>