<svg 
 xmlns="http://www.w3.org/2000/svg"
 xmlns:xlink="http://www.w3.org/1999/xlink"
 width="24px" height="30px">
<path fill-rule="evenodd"  fill="rgb(51, 51, 51)"
 d="M19.342,21.577 L20.483,25.684 C20.886,26.696 20.647,27.805 19.835,28.625 C19.209,29.475 18.159,30.000 17.051,30.000 L6.938,30.000 C5.704,30.000 4.852,29.533 4.256,28.531 C3.680,27.760 3.468,26.755 3.673,25.721 L4.790,21.690 C1.789,19.370 0.002,15.793 0.002,12.088 C0.002,5.527 5.494,-0.015 11.994,-0.015 C18.496,-0.015 23.987,5.528 23.987,12.089 C23.987,15.722 22.253,19.257 19.342,21.577 ZM6.574,26.816 C6.616,26.896 6.644,26.949 6.673,27.007 C6.698,27.057 6.724,27.087 6.938,27.087 L17.226,27.087 C17.343,27.087 17.397,27.061 17.529,26.931 L17.589,26.816 C17.624,26.752 17.684,26.643 17.686,26.614 L17.649,26.518 L16.718,23.177 C13.761,24.500 10.401,24.526 7.428,23.245 L6.531,26.475 C6.467,26.621 6.467,26.621 6.574,26.816 ZM11.994,2.721 C7.058,2.721 2.888,6.930 2.888,11.912 C2.888,16.894 7.058,21.103 11.994,21.103 C16.931,21.103 21.102,16.894 21.102,11.912 C21.102,6.930 16.931,2.721 11.994,2.721 ZM11.994,17.329 C9.035,17.329 6.628,14.899 6.628,11.912 C6.628,8.926 9.035,6.497 11.994,6.497 C15.054,6.497 17.361,8.825 17.361,11.912 C17.361,14.899 14.953,17.329 11.994,17.329 ZM11.994,9.585 C10.650,9.585 9.514,10.651 9.514,11.912 C9.514,13.316 10.604,14.416 11.994,14.416 C13.386,14.416 14.475,13.316 14.475,11.912 C14.475,10.651 13.340,9.585 11.994,9.585 Z"/>
</svg>