<svg 
 xmlns="http://www.w3.org/2000/svg"
 xmlns:xlink="http://www.w3.org/1999/xlink"
 width="44px" height="46px">
<path fill-rule="evenodd"  fill="rgb(235, 242, 241)"
 d="M21.999,-0.000 C34.150,-0.000 43.999,9.850 43.999,22.000 C43.999,34.150 34.150,44.000 21.999,44.000 C9.850,44.000 -0.000,34.150 -0.000,22.000 C-0.000,9.850 9.850,-0.000 21.999,-0.000 Z"/>
<path fill-rule="evenodd"  opacity="0.8" fill="rgb(25, 204, 174)"
 d="M22.394,46.004 C27.734,46.004 32.973,44.145 37.003,40.624 L36.700,36.770 C36.700,33.542 33.980,30.999 30.756,30.999 L14.234,30.999 C10.910,30.999 8.291,33.640 8.291,36.770 L7.988,40.722 C11.917,44.145 17.056,46.004 22.394,46.004 Z"/>
<path fill-rule="evenodd"  fill="rgb(255, 255, 255)"
 d="M22.241,35.011 L21.781,35.011 C19.942,35.011 18.010,33.398 18.010,31.381 L18.470,24.626 C18.470,22.609 19.942,20.996 21.781,20.996 L22.241,20.996 C24.081,20.996 25.553,22.609 25.553,24.626 L26.012,31.381 C26.012,33.398 24.081,35.011 22.241,35.011 Z"/>
<path fill-rule="evenodd"  opacity="0.6" fill="rgb(184, 189, 191)"
 d="M24.997,27.184 L24.715,23.702 C24.715,21.653 23.210,20.015 21.327,20.015 L20.857,20.015 C18.975,20.015 17.469,21.653 17.469,23.702 L16.999,30.564 C16.999,31.077 17.092,31.589 17.375,31.998 L18.881,31.998 C21.610,31.998 24.056,30.052 24.997,27.184 Z"/>
<path fill-rule="evenodd"  opacity="0.902" fill="rgb(116, 224, 206)"
 d="M25.423,9.014 L20.439,9.014 C19.071,9.014 17.801,9.725 17.019,10.944 C14.772,10.944 13.013,12.874 13.013,15.108 L13.013,17.851 C13.013,20.187 14.869,22.015 17.019,22.015 L26.986,22.015 C29.233,22.015 30.992,20.187 30.992,17.851 L30.992,14.702 C31.090,11.655 28.549,9.014 25.423,9.014 Z"/>
<path fill-rule="evenodd"  fill="rgb(255, 255, 255)"
 d="M16.811,15.998 L27.175,15.998 C28.135,15.998 28.999,16.745 28.999,17.678 L28.999,23.650 C28.999,25.329 28.326,26.916 27.079,28.129 C25.831,29.342 24.105,29.995 22.377,29.995 L21.610,29.995 C19.882,29.995 18.155,29.342 16.908,28.129 C15.660,26.916 14.989,25.329 14.989,23.650 L14.989,17.678 C14.989,16.745 15.756,15.998 16.811,15.998 Z"/>
</svg>