<svg 
 xmlns="http://www.w3.org/2000/svg"
 xmlns:xlink="http://www.w3.org/1999/xlink"
 width="26px" height="26px">
<path fill-rule="evenodd"  fill="rgb(196, 221, 252)"
 d="M4.000,0.000 L22.000,0.000 C24.209,0.000 26.000,1.791 26.000,4.000 L26.000,22.000 C26.000,24.209 24.209,26.000 22.000,26.000 L4.000,26.000 C1.791,26.000 0.000,24.209 0.000,22.000 L0.000,4.000 C0.000,1.791 1.791,0.000 4.000,0.000 Z"/>
<path fill-rule="evenodd"  fill="rgb(120, 181, 255)"
 d="M9.214,8.718 C8.875,8.371 8.875,7.801 9.214,7.455 L12.361,4.260 C12.700,3.913 13.258,3.913 13.597,4.260 L16.745,7.455 C17.084,7.801 17.084,8.371 16.745,8.718 C16.405,9.065 15.848,9.065 15.509,8.718 L13.853,7.048 L13.853,11.106 C13.853,11.597 13.460,11.999 12.979,11.999 C12.499,11.999 12.105,11.597 12.105,11.106 L12.105,7.048 L10.450,8.718 C10.109,9.065 9.553,9.065 9.214,8.718 Z"/>
<path fill-rule="evenodd"  fill="rgb(53, 106, 255)"
 d="M8.000,11.000 L18.000,11.000 C19.105,11.000 20.000,11.895 20.000,13.000 L20.000,26.000 L6.000,26.000 L6.000,13.000 C6.000,11.895 6.895,11.000 8.000,11.000 Z"/>
<path fill-rule="evenodd"  fill="rgb(196, 221, 252)"
 d="M17.000,20.000 C17.000,22.209 15.209,24.000 13.000,24.000 C10.791,24.000 9.000,22.209 9.000,20.000 C9.000,18.128 10.291,16.570 12.027,16.133 C12.021,16.088 12.000,16.047 12.000,16.000 L12.000,14.000 C12.000,13.448 12.448,13.000 13.000,13.000 C13.552,13.000 14.000,13.448 14.000,14.000 L14.000,14.400 C14.000,14.179 14.179,14.000 14.400,14.000 L15.600,14.000 C15.821,14.000 16.000,14.179 16.000,14.400 L16.000,14.600 C16.000,14.821 15.821,15.000 15.600,15.000 L14.400,15.000 C14.179,15.000 14.000,14.821 14.000,14.600 L14.000,16.000 C14.000,16.047 13.979,16.088 13.973,16.133 C15.709,16.570 17.000,18.128 17.000,20.000 Z"/>
<path fill-rule="evenodd"  fill="rgb(120, 181, 255)"
 d="M13.000,18.000 C14.105,18.000 15.000,18.895 15.000,20.000 C15.000,21.105 14.105,22.000 13.000,22.000 C11.895,22.000 11.000,21.105 11.000,20.000 C11.000,18.895 11.895,18.000 13.000,18.000 Z"/>
</svg>