<svg 
 xmlns="http://www.w3.org/2000/svg"
 xmlns:xlink="http://www.w3.org/1999/xlink"
 width="26px" height="26px">
<path fill-rule="evenodd"  fill="rgb(196, 221, 252)"
 d="M4.000,0.000 L22.000,0.000 C24.209,0.000 26.000,1.791 26.000,4.000 L26.000,22.000 C26.000,24.209 24.209,26.000 22.000,26.000 L4.000,26.000 C1.791,26.000 0.000,24.209 0.000,22.000 L0.000,4.000 C0.000,1.791 1.791,0.000 4.000,0.000 Z"/>
<path fill-rule="evenodd"  fill="rgb(53, 106, 255)"
 d="M6.000,9.000 L20.000,9.000 L20.000,26.000 L6.000,26.000 L6.000,9.000 Z"/>
<path fill-rule="evenodd"  fill="rgb(120, 181, 255)"
 d="M5.500,6.000 L20.500,6.000 C21.328,6.000 22.000,6.672 22.000,7.500 C22.000,8.328 21.328,9.000 20.500,9.000 L5.500,9.000 C4.672,9.000 4.000,8.328 4.000,7.500 C4.000,6.672 4.672,6.000 5.500,6.000 Z"/>
<path fill-rule="evenodd"  fill="rgb(196, 221, 252)"
 d="M17.000,20.000 C17.000,22.209 15.209,24.000 13.000,24.000 C10.791,24.000 9.000,22.209 9.000,20.000 C9.000,18.138 10.278,16.588 12.000,16.141 L12.000,12.000 C12.000,11.448 12.448,11.000 13.000,11.000 C13.552,11.000 14.000,11.448 14.000,12.000 L14.000,12.400 C14.000,12.179 14.179,12.000 14.400,12.000 L15.600,12.000 C15.821,12.000 16.000,12.179 16.000,12.400 L16.000,12.600 C16.000,12.821 15.821,13.000 15.600,13.000 L14.400,13.000 C14.179,13.000 14.000,12.821 14.000,12.600 L14.000,14.400 C14.000,14.179 14.179,14.000 14.400,14.000 L15.600,14.000 C15.821,14.000 16.000,14.179 16.000,14.400 L16.000,14.600 C16.000,14.821 15.821,15.000 15.600,15.000 L14.400,15.000 C14.179,15.000 14.000,14.821 14.000,14.600 L14.000,16.141 C15.722,16.588 17.000,18.138 17.000,20.000 Z"/>
<path fill-rule="evenodd"  fill="rgb(120, 181, 255)"
 d="M13.000,18.000 C14.105,18.000 15.000,18.895 15.000,20.000 C15.000,21.105 14.105,22.000 13.000,22.000 C11.895,22.000 11.000,21.105 11.000,20.000 C11.000,18.895 11.895,18.000 13.000,18.000 Z"/>
</svg>