<svg 
 xmlns="http://www.w3.org/2000/svg"
 xmlns:xlink="http://www.w3.org/1999/xlink"
 width="26px" height="26px">
<path fill-rule="evenodd"  fill="rgb(196, 221, 252)"
 d="M4.000,-0.000 L22.000,-0.000 C24.209,-0.000 26.000,1.791 26.000,4.000 L26.000,22.000 C26.000,24.209 24.209,26.000 22.000,26.000 L4.000,26.000 C1.791,26.000 -0.000,24.209 -0.000,22.000 L-0.000,4.000 C-0.000,1.791 1.791,-0.000 4.000,-0.000 Z"/>
<path fill-rule="evenodd"  fill="rgb(53, 106, 255)"
 d="M6.000,26.000 L6.000,10.000 L20.000,10.000 L20.000,26.000 L6.000,26.000 ZM18.000,15.500 C18.000,15.224 17.776,15.000 17.500,15.000 C17.224,15.000 17.000,15.224 17.000,15.500 L17.000,20.500 C17.000,20.776 17.224,21.000 17.500,21.000 C17.776,21.000 18.000,20.776 18.000,20.500 L18.000,15.500 Z"/>
<path fill-rule="evenodd"  fill="rgb(120, 181, 255)"
 d="M5.500,7.000 L20.500,7.000 C21.328,7.000 22.000,7.672 22.000,8.500 C22.000,9.328 21.328,10.000 20.500,10.000 L5.500,10.000 C4.672,10.000 4.000,9.328 4.000,8.500 C4.000,7.672 4.672,7.000 5.500,7.000 Z"/>
</svg>