<svg 
 xmlns="http://www.w3.org/2000/svg"
 xmlns:xlink="http://www.w3.org/1999/xlink"
 width="18px" height="18px">
<path fill-rule="evenodd"  
 d="M15.199,18.000 L4.799,18.000 C3.200,18.000 1.999,16.800 1.999,15.200 L1.999,13.600 L0.800,13.600 C0.399,13.600 -0.001,13.300 -0.001,12.800 C-0.001,12.300 0.300,12.000 0.800,12.000 L1.999,12.000 L1.999,5.600 L0.800,5.600 C0.300,5.500 -0.001,5.200 -0.001,4.800 C-0.001,4.300 0.300,4.000 0.800,4.000 L1.999,4.000 L1.999,2.800 C1.999,1.200 3.200,-0.000 4.799,-0.000 L15.299,-0.000 C16.799,-0.000 17.999,1.200 17.999,2.800 L17.999,15.300 C17.999,16.800 16.799,18.000 15.199,18.000 ZM16.499,2.800 C16.499,2.100 15.899,1.600 15.299,1.600 L4.799,1.600 C4.099,1.600 3.599,2.100 3.599,2.700 L3.599,4.000 L4.299,4.000 C4.700,4.000 4.999,4.300 4.999,4.800 C4.999,5.200 4.700,5.600 4.200,5.600 L3.599,5.600 L3.599,12.000 L4.299,12.000 C4.700,12.000 4.999,12.300 4.999,12.800 C4.999,13.200 4.700,13.600 4.200,13.600 L3.599,13.600 L3.599,15.200 C3.599,15.900 4.200,16.400 4.799,16.400 L15.299,16.400 C15.999,16.400 16.499,15.800 16.499,15.200 L16.499,2.800 Z"/>
<path fill-rule="evenodd"  
 d="M13.921,9.811 C13.848,10.215 13.592,10.472 13.279,10.472 C12.898,10.472 12.618,10.768 12.618,11.131 C12.618,11.212 12.657,11.332 12.674,11.378 C12.817,11.718 12.705,12.137 12.414,12.352 L11.440,12.922 C11.310,12.983 11.208,13.005 11.099,13.005 C10.874,13.005 10.653,12.905 10.508,12.737 C10.383,12.591 10.109,12.374 9.979,12.374 C9.864,12.374 9.594,12.569 9.454,12.729 C9.240,12.977 8.858,13.061 8.560,12.927 L7.617,12.374 C7.291,12.137 7.180,11.716 7.324,11.375 C7.357,11.291 7.379,11.192 7.379,11.131 C7.379,10.768 7.099,10.472 6.754,10.472 C6.404,10.472 6.149,10.214 6.079,9.830 C6.053,9.676 5.997,9.311 5.997,9.006 C5.997,8.702 6.053,8.337 6.078,8.193 C6.149,7.799 6.404,7.540 6.716,7.540 C7.099,7.540 7.379,7.245 7.379,6.882 C7.379,6.794 7.338,6.672 7.323,6.637 C7.180,6.296 7.292,5.877 7.584,5.662 L8.575,5.084 C8.983,4.898 9.286,5.021 9.501,5.260 C9.624,5.395 9.891,5.598 10.018,5.598 C10.132,5.598 10.393,5.416 10.532,5.266 C10.747,5.031 11.130,4.945 11.420,5.080 L12.379,5.637 C12.711,5.880 12.819,6.292 12.673,6.639 C12.652,6.690 12.618,6.804 12.618,6.882 C12.618,7.245 12.898,7.540 13.243,7.540 C13.592,7.540 13.849,7.799 13.919,8.183 C13.925,8.224 14.000,8.654 14.000,9.006 C14.000,9.277 13.957,9.594 13.921,9.811 ZM12.881,8.652 C12.105,8.475 11.525,7.740 11.525,6.882 C11.525,6.739 11.547,6.602 11.575,6.484 L11.145,6.233 C11.091,6.282 11.025,6.337 10.951,6.391 C10.298,6.872 9.718,6.867 9.077,6.384 C9.002,6.328 8.936,6.272 8.880,6.222 L8.423,6.487 C8.450,6.604 8.472,6.741 8.472,6.882 C8.472,7.740 7.892,8.475 7.116,8.652 C7.099,8.791 7.090,8.915 7.090,9.006 C7.090,9.098 7.099,9.223 7.116,9.362 C7.892,9.538 8.472,10.274 8.472,11.131 C8.472,11.275 8.450,11.415 8.423,11.530 L8.828,11.769 C8.883,11.718 8.949,11.661 9.022,11.604 C9.348,11.351 9.671,11.223 9.979,11.223 C10.290,11.223 10.614,11.353 10.944,11.611 C11.019,11.669 11.086,11.728 11.141,11.781 L11.575,11.528 C11.547,11.411 11.525,11.272 11.525,11.131 C11.525,10.274 12.105,9.538 12.881,9.362 C12.895,9.251 12.907,9.118 12.907,9.006 C12.907,8.896 12.895,8.763 12.881,8.652 ZM9.983,10.690 C9.099,10.690 8.381,9.932 8.381,9.002 C8.381,8.071 9.099,7.314 9.983,7.314 C10.866,7.314 11.585,8.071 11.585,9.002 C11.585,9.932 10.866,10.690 9.983,10.690 ZM9.983,8.466 C9.702,8.466 9.474,8.707 9.474,9.002 C9.474,9.297 9.702,9.537 9.983,9.537 C10.263,9.537 10.491,9.297 10.491,9.002 C10.491,8.707 10.263,8.466 9.983,8.466 Z"/>
</svg>