<svg 
 xmlns="http://www.w3.org/2000/svg"
 xmlns:xlink="http://www.w3.org/1999/xlink"
 width="26px" height="26px">
<path fill-rule="evenodd"  fill="rgb(196, 221, 252)"
 d="M4.000,0.000 L22.000,0.000 C24.209,0.000 26.000,1.791 26.000,4.000 L26.000,22.000 C26.000,24.209 24.209,26.000 22.000,26.000 L4.000,26.000 C1.791,26.000 0.000,24.209 0.000,22.000 L0.000,4.000 C0.000,1.791 1.791,0.000 4.000,0.000 Z"/>
<path fill-rule="evenodd"  fill="rgb(53, 106, 255)"
 d="M13.004,21.679 C12.117,21.679 11.255,21.556 10.437,21.314 L9.559,23.000 L6.452,18.245 L12.172,17.962 L11.416,19.411 C11.929,19.531 12.458,19.591 12.995,19.591 C16.790,19.591 19.878,16.540 19.878,12.789 C19.878,12.235 19.811,11.690 19.678,11.160 C19.631,10.973 19.576,10.788 19.513,10.605 C21.457,9.847 19.507,10.614 21.476,9.829 C21.577,10.109 21.663,10.394 21.735,10.682 C21.905,11.364 21.994,12.067 21.999,12.784 C21.999,17.691 17.964,21.679 13.004,21.679 ZM17.000,16.999 L15.076,16.999 L14.375,15.102 L11.615,15.102 L10.913,16.999 L9.000,16.999 L12.128,8.999 L13.872,8.999 L17.000,16.999 ZM12.999,11.395 L12.198,13.535 L13.793,13.535 L12.999,11.395 ZM15.262,6.365 C14.533,6.114 13.772,5.986 12.995,5.986 C9.200,5.986 6.112,9.038 6.112,12.789 C6.112,13.747 6.312,14.681 6.695,15.539 C4.788,16.414 6.691,15.565 4.771,16.400 C4.263,15.270 4.000,14.044 4.000,12.789 C4.000,7.887 8.035,3.898 12.995,3.898 C14.154,3.898 15.274,4.110 16.329,4.529 L17.216,3.000 L20.095,7.884 L14.366,7.913 L15.262,6.365 Z"/>
</svg>