<svg 
 xmlns="http://www.w3.org/2000/svg"
 xmlns:xlink="http://www.w3.org/1999/xlink"
 width="30px" height="28px">
<path fill-rule="evenodd"  fill="rgb(51, 51, 51)"
 d="M28.636,28.000 L26.002,28.000 L3.997,28.000 L1.363,28.000 C0.613,28.000 -0.001,27.328 -0.001,26.507 C-0.001,25.685 0.613,25.013 1.363,25.013 L3.997,25.013 L3.997,11.200 C3.997,5.040 8.948,-0.000 14.999,-0.000 C21.051,-0.000 26.002,5.040 26.002,11.200 L26.002,25.013 L28.636,25.013 C29.386,25.013 29.999,25.685 29.999,26.507 C29.999,27.328 29.386,28.000 28.636,28.000 ZM23.251,11.200 C23.251,6.580 19.538,2.800 14.999,2.800 C10.461,2.800 6.748,6.580 6.748,11.200 L6.748,25.013 L23.251,25.013 L23.251,11.200 ZM16.499,7.770 L16.090,13.160 L18.409,13.160 L18.409,13.230 L13.500,20.230 C13.500,20.300 13.431,20.300 13.431,20.230 L13.840,14.840 L11.590,14.840 L11.590,14.770 L16.431,7.770 C16.431,7.700 16.499,7.700 16.499,7.770 Z"/>
</svg>